<svg xmlns="http://www.w3.org/2000/svg" width="620" height="300" viewBox="0 0 620 300" role="img" aria-label="Typia benchmark speedup chart">
  <title>Typia benchmark speedup chart</title>
  <defs>
    <linearGradient id="typia-bar" x1="0" x2="1">
      <stop offset="0%" stop-color="#2563eb" />
      <stop offset="100%" stop-color="#0f766e" />
    </linearGradient>
  </defs>
  <rect x="1" y="1" width="618" height="298" rx="8" fill="#fff" stroke="#cbd5e1" />
  <text x="24" y="38" fill="#0f172a" font-family="Inter, Segoe UI, sans-serif" font-size="24" font-weight="900">Typia speedup</text>
  <text x="24" y="75" fill="#2563eb" font-family="Inter, Segoe UI, sans-serif" font-size="20" font-weight="900">Runtime validation</text>
  <text x="38" y="110" fill="#334155" font-family="Inter, Segoe UI, sans-serif" font-size="17" font-weight="800">class-validator</text>
  <rect x="198" y="94" width="340" height="18" rx="9" fill="#e2e8f0" />
  <rect x="198" y="94" width="28" height="18" rx="9" fill="#94a3b8" />
  <text x="560" y="110" text-anchor="end" fill="#0f172a" font-family="Inter, Segoe UI, sans-serif" font-size="20" font-weight="900">1x</text>
  <text x="38" y="144" fill="#334155" font-family="Inter, Segoe UI, sans-serif" font-size="17" font-weight="800">typia</text>
  <rect x="198" y="128" width="340" height="18" rx="9" fill="#e2e8f0" />
  <rect x="198" y="128" width="340" height="18" rx="9" fill="url(#typia-bar)" />
  <text x="560" y="144" text-anchor="end" fill="#0f172a" font-family="Inter, Segoe UI, sans-serif" font-size="20" font-weight="900">20,000x</text>
  <text x="24" y="190" fill="#2563eb" font-family="Inter, Segoe UI, sans-serif" font-size="20" font-weight="900">JSON serialization</text>
  <text x="38" y="225" fill="#334155" font-family="Inter, Segoe UI, sans-serif" font-size="17" font-weight="800">class-transformer</text>
  <rect x="198" y="209" width="340" height="18" rx="9" fill="#e2e8f0" />
  <rect x="198" y="209" width="28" height="18" rx="9" fill="#94a3b8" />
  <text x="560" y="225" text-anchor="end" fill="#0f172a" font-family="Inter, Segoe UI, sans-serif" font-size="20" font-weight="900">1x</text>
  <text x="38" y="259" fill="#334155" font-family="Inter, Segoe UI, sans-serif" font-size="17" font-weight="800">typia</text>
  <rect x="198" y="243" width="340" height="18" rx="9" fill="#e2e8f0" />
  <rect x="198" y="243" width="218" height="18" rx="9" fill="url(#typia-bar)" />
  <text x="560" y="259" text-anchor="end" fill="#0f172a" font-family="Inter, Segoe UI, sans-serif" font-size="20" font-weight="900">200x</text>
  <text x="24" y="286" fill="#64748b" font-family="Inter, Segoe UI, sans-serif" font-size="14">Log-scaled visual, comparison target = 1x.</text>
</svg>
