<svg xmlns="http://www.w3.org/2000/svg" width="620" height="360" viewBox="0 0 620 360" role="img" aria-label="Nestia benchmark speedup chart">
  <title>Nestia benchmark speedup chart</title>
  <defs>
    <linearGradient id="nestia-bar" x1="0" x2="1">
      <stop offset="0%" stop-color="#2563eb" />
      <stop offset="100%" stop-color="#0f766e" />
    </linearGradient>
  </defs>
  <rect x="1" y="1" width="618" height="358" rx="8" fill="#fff" stroke="#cbd5e1" />
  <text x="24" y="38" fill="#0f172a" font-family="Inter, Segoe UI, sans-serif" font-size="24" font-weight="900">Nestia speedup</text>
  <text x="24" y="72" fill="#2563eb" font-family="Inter, Segoe UI, sans-serif" font-size="19" font-weight="900">Server path</text>
  <text x="38" y="103" fill="#334155" font-family="Inter, Segoe UI, sans-serif" font-size="16" font-weight="800">NestJS base</text>
  <rect x="198" y="88" width="340" height="17" rx="8.5" fill="#e2e8f0" />
  <rect x="198" y="88" width="28" height="17" rx="8.5" fill="#94a3b8" />
  <text x="560" y="103" text-anchor="end" fill="#0f172a" font-family="Inter, Segoe UI, sans-serif" font-size="19" font-weight="900">1x</text>
  <text x="38" y="133" fill="#334155" font-family="Inter, Segoe UI, sans-serif" font-size="16" font-weight="800">nestia</text>
  <rect x="198" y="118" width="340" height="17" rx="8.5" fill="#e2e8f0" />
  <rect x="198" y="118" width="122" height="17" rx="8.5" fill="url(#nestia-bar)" />
  <text x="560" y="133" text-anchor="end" fill="#0f172a" font-family="Inter, Segoe UI, sans-serif" font-size="19" font-weight="900">10x+</text>
  <text x="24" y="171" fill="#2563eb" font-family="Inter, Segoe UI, sans-serif" font-size="19" font-weight="900">Validation</text>
  <text x="38" y="202" fill="#334155" font-family="Inter, Segoe UI, sans-serif" font-size="16" font-weight="800">class-validator</text>
  <rect x="198" y="187" width="340" height="17" rx="8.5" fill="#e2e8f0" />
  <rect x="198" y="187" width="28" height="17" rx="8.5" fill="#94a3b8" />
  <text x="560" y="202" text-anchor="end" fill="#0f172a" font-family="Inter, Segoe UI, sans-serif" font-size="19" font-weight="900">1x</text>
  <text x="38" y="232" fill="#334155" font-family="Inter, Segoe UI, sans-serif" font-size="16" font-weight="800">typia core</text>
  <rect x="198" y="217" width="340" height="17" rx="8.5" fill="#e2e8f0" />
  <rect x="198" y="217" width="340" height="17" rx="8.5" fill="url(#nestia-bar)" />
  <text x="560" y="232" text-anchor="end" fill="#0f172a" font-family="Inter, Segoe UI, sans-serif" font-size="19" font-weight="900">20,000x</text>
  <text x="24" y="270" fill="#2563eb" font-family="Inter, Segoe UI, sans-serif" font-size="19" font-weight="900">Serialization</text>
  <text x="38" y="301" fill="#334155" font-family="Inter, Segoe UI, sans-serif" font-size="16" font-weight="800">class-transformer</text>
  <rect x="198" y="286" width="340" height="17" rx="8.5" fill="#e2e8f0" />
  <rect x="198" y="286" width="28" height="17" rx="8.5" fill="#94a3b8" />
  <text x="560" y="301" text-anchor="end" fill="#0f172a" font-family="Inter, Segoe UI, sans-serif" font-size="19" font-weight="900">1x</text>
  <text x="38" y="331" fill="#334155" font-family="Inter, Segoe UI, sans-serif" font-size="16" font-weight="800">typia core</text>
  <rect x="198" y="316" width="340" height="17" rx="8.5" fill="#e2e8f0" />
  <rect x="198" y="316" width="218" height="17" rx="8.5" fill="url(#nestia-bar)" />
  <text x="560" y="331" text-anchor="end" fill="#0f172a" font-family="Inter, Segoe UI, sans-serif" font-size="19" font-weight="900">200x</text>
</svg>
