<svg xmlns="http://www.w3.org/2000/svg" width="850" height="450" viewBox="0 0 850 450" role="img" aria-label="@ttsc/graph TypeORM agent token usage">
  <title>@ttsc/graph TypeORM agent token usage</title>
  <rect x="1" y="1" width="848" height="448" rx="8" fill="#fff" stroke="#cbd5e1" />
  <text x="34" y="50" fill="#0f172a" font-family="Inter, Segoe UI, sans-serif" font-size="30" font-weight="900">TypeORM agent token usage</text>
  <line x1="34" y1="92" x2="816" y2="92" stroke="#e2e8f0" />
  <text x="42" y="126" fill="#0f172a" font-family="Inter, Segoe UI, sans-serif" font-size="24" font-weight="900">Anthropic Opus</text>
  <text x="800" y="126" text-anchor="end" fill="#2563eb" font-family="Inter, Segoe UI, sans-serif" font-size="26" font-weight="900">9.9x fewer</text>
  <text x="58" y="171" fill="#334155" font-family="Inter, Segoe UI, sans-serif" font-size="20" font-weight="800">Baseline</text>
  <rect x="164" y="151" width="560" height="24" rx="12" fill="#e2e8f0" />
  <rect x="164" y="151" width="560" height="24" rx="12" fill="#ef4444" />
  <text x="800" y="172" text-anchor="end" fill="#0f172a" font-family="Inter, Segoe UI, sans-serif" font-size="22" font-weight="900">1,471,202</text>
  <text x="58" y="214" fill="#334155" font-family="Inter, Segoe UI, sans-serif" font-size="20" font-weight="800">Graph</text>
  <rect x="164" y="194" width="560" height="24" rx="12" fill="#e2e8f0" />
  <rect x="164" y="194" width="56" height="24" rx="12" fill="#2563eb" />
  <text x="800" y="215" text-anchor="end" fill="#0f172a" font-family="Inter, Segoe UI, sans-serif" font-size="22" font-weight="900">148,231</text>
  <line x1="34" y1="250" x2="816" y2="250" stroke="#e2e8f0" />
  <text x="42" y="284" fill="#0f172a" font-family="Inter, Segoe UI, sans-serif" font-size="24" font-weight="900">OpenAI GPT</text>
  <text x="800" y="284" text-anchor="end" fill="#2563eb" font-family="Inter, Segoe UI, sans-serif" font-size="26" font-weight="900">4.0x fewer</text>
  <text x="58" y="329" fill="#334155" font-family="Inter, Segoe UI, sans-serif" font-size="20" font-weight="800">Baseline</text>
  <rect x="164" y="309" width="560" height="24" rx="12" fill="#e2e8f0" />
  <rect x="164" y="309" width="560" height="24" rx="12" fill="#ef4444" />
  <text x="800" y="330" text-anchor="end" fill="#0f172a" font-family="Inter, Segoe UI, sans-serif" font-size="22" font-weight="900">586,338</text>
  <text x="58" y="372" fill="#334155" font-family="Inter, Segoe UI, sans-serif" font-size="20" font-weight="800">Graph</text>
  <rect x="164" y="352" width="560" height="24" rx="12" fill="#e2e8f0" />
  <rect x="164" y="352" width="139" height="24" rx="12" fill="#2563eb" />
  <text x="800" y="373" text-anchor="end" fill="#0f172a" font-family="Inter, Segoe UI, sans-serif" font-size="22" font-weight="900">145,493</text>
</svg>
